<svg id="Draw" xmlns="http://www.w3.org/2000/svg" viewBox="0 0 792.25 250.9"><defs><style>.cls-1{fill:#fff;}</style></defs><ellipse cx="126.59" cy="125.45" rx="126.59" ry="125.45"/><path class="cls-1" d="M195.49,50.06h-3.34a15.11,15.11,0,0,0-15.1,15.11h0v7.74a81.34,81.34,0,0,1,0,105.94v7.41a15.1,15.1,0,0,0,15.1,15.1h3.34a15.1,15.1,0,0,0,15.11-15.1h0V65.18a15.12,15.12,0,0,0-15.1-15.12Z" transform="translate(-1.03 0.9)"/><path class="cls-1" d="M159.52,145.44a48.53,48.53,0,1,1,1.95-34.06H86.92A12.63,12.63,0,0,0,74.28,124v1.32A12.63,12.63,0,0,0,86.92,138h82v0h21a75.52,75.52,0,1,0-1.59,7.51Z" transform="translate(-1.03 0.9)"/><path d="M399.28,99.4h-8.1v-8q-8.9,9.81-20.5,9.8a26.6,26.6,0,0,1-19.85-8.55,28.36,28.36,0,0,1-8.25-20.4,28,28,0,0,1,8.3-20.3,27.34,27.34,0,0,1,20.25-8.45q12,0,20.05,9.7V44.9h8.1Zm-28-5.9a19.51,19.51,0,0,0,14.3-6,20.29,20.29,0,0,0,6-15,20.64,20.64,0,0,0-5.9-15,19.41,19.41,0,0,0-14.45-6,19.14,19.14,0,0,0-14.45,6.25,20.81,20.81,0,0,0-5.9,14.75,20.58,20.58,0,0,0,6,14.75A19.24,19.24,0,0,0,371.28,93.5Z" transform="translate(-1.03 0.9)"/><path d="M439.28,45.7l-4.3,7a7,7,0,0,0-3.3-.9,7.22,7.22,0,0,0-5.6,3.05,20.52,20.52,0,0,0-3.75,8q-1.24,5-1.25,17.85V99.4h-8.4V44.9h8.4v5.9a21.25,21.25,0,0,1,5.05-5.5,9.83,9.83,0,0,1,5.8-1.8A16,16,0,0,1,439.28,45.7Z" transform="translate(-1.03 0.9)"/><path d="M497.18,99.4H489v-26q0-9-.85-12.25a16.21,16.21,0,0,0-2.5-5.5,10.12,10.12,0,0,0-4.2-3.35,15.7,15.7,0,0,0-6.2-1.1,15.47,15.47,0,0,0-7.15,1.8,18.1,18.1,0,0,0-6,5,18.73,18.73,0,0,0-3.45,6.8q-.94,3.6-.95,14.4V99.4h-8.3V44.9h8.3v8.2q8.1-9.6,19.2-9.6a19.57,19.57,0,0,1,10.7,3,18.92,18.92,0,0,1,7.2,8.4q2.4,5.36,2.4,16.45Z" transform="translate(-1.03 0.9)"/><path d="M567.68,99.4h-8.1v-8q-8.9,9.81-20.5,9.8a26.6,26.6,0,0,1-19.85-8.55A28.36,28.36,0,0,1,511,72.25a28,28,0,0,1,8.3-20.3,27.31,27.31,0,0,1,20.25-8.45q12,0,20.05,9.7V44.9h8.1Zm-28-5.9a19.53,19.53,0,0,0,14.3-6,20.29,20.29,0,0,0,6-15,20.68,20.68,0,0,0-5.9-15,19.41,19.41,0,0,0-14.45-6,19.12,19.12,0,0,0-14.45,6.25,20.81,20.81,0,0,0-5.9,14.75,20.58,20.58,0,0,0,6,14.75A19.24,19.24,0,0,0,539.68,93.5Z" transform="translate(-1.03 0.9)"/><path d="M631.68,99.4h-8.3V91.2q-8.1,9.6-19.2,9.6a19.49,19.49,0,0,1-10.7-3,18.82,18.82,0,0,1-7.2-8.4q-2.4-5.34-2.4-16.45v-28h8.2v26q0,9,.85,12.25a16.12,16.12,0,0,0,2.5,5.5,10,10,0,0,0,4.2,3.35A16.31,16.31,0,0,0,613,91.3a18,18,0,0,0,6-5,18.65,18.65,0,0,0,3.45-6.8q.95-3.6,1-14.4V44.9h8.3Z" transform="translate(-1.03 0.9)"/><path d="M702.88,99.4h-8.1v-8q-8.91,9.81-20.55,9.8a26.54,26.54,0,0,1-19.85-8.5,28.3,28.3,0,0,1-8.2-20.4A28,28,0,0,1,654.48,52a27.31,27.31,0,0,1,20.25-8.45q11.94,0,20,9.7V24.4h8.1Zm-28-5.9a20.66,20.66,0,0,0,20.3-20.85,21.09,21.09,0,0,0-5.75-15.1,20.29,20.29,0,0,0-29.1.2,21.26,21.26,0,0,0,.15,29.45A19.18,19.18,0,0,0,674.88,93.5Z" transform="translate(-1.03 0.9)"/><path d="M398.68,193.6h-47.8q.51,9,6.05,14.45a18.23,18.23,0,0,0,13.25,5.45q13.11,0,20-12.9l7,3.6q-4.69,8.7-11.1,12.85a27.45,27.45,0,0,1-15.3,4.15q-12.3,0-20.3-8.45a29.88,29.88,0,0,1,0-40.75,26.4,26.4,0,0,1,20-8.5,26.94,26.94,0,0,1,19.9,8.05Q398.39,179.6,398.68,193.6Zm-9.2-7.3a17.55,17.55,0,0,0-6.8-10.9,20,20,0,0,0-12.2-3.9q-14,0-18.6,14.8Z" transform="translate(-1.03 0.9)"/><path d="M460.78,219.4h-8.2v-26q0-9-.85-12.25a16,16,0,0,0-2.5-5.5,10.12,10.12,0,0,0-4.2-3.35,15.7,15.7,0,0,0-6.2-1.1,15.47,15.47,0,0,0-7.15,1.8,18.1,18.1,0,0,0-6,5,18.73,18.73,0,0,0-3.45,6.8q-.94,3.6-1,14.4v20.2H413V164.9h8.3v8.2q8.1-9.6,19.2-9.6a19.55,19.55,0,0,1,10.7,3.05,18.92,18.92,0,0,1,7.2,8.4q2.4,5.36,2.4,16.45Z" transform="translate(-1.03 0.9)"/><path d="M531.48,206.6q0,10.8-1.85,16a22.34,22.34,0,0,1-5.6,8.8,24.57,24.57,0,0,1-9,5.45,34.38,34.38,0,0,1-11.55,1.85q-21.3,0-28.4-18h8.8q5.81,10.41,19.3,10.4a24.93,24.93,0,0,0,11.1-2.4,14.39,14.39,0,0,0,6.9-6.4q2-4,2-12.3v-.5a25.44,25.44,0,0,1-9.4,6.7,29.17,29.17,0,0,1-11.4,2.3,26.55,26.55,0,0,1-19.75-8.1,27.29,27.29,0,0,1,.45-38.75A27.69,27.69,0,0,1,503,163.5q11.55,0,20.15,9.4v-8h8.3Zm-8-15.3a19,19,0,0,0-5.75-14.2,19.39,19.39,0,0,0-14.05-5.6,19.87,19.87,0,0,0-14.75,6.05,19.43,19.43,0,0,0-5.95,14,18.18,18.18,0,0,0,5.7,13.55q5.7,5.55,14.6,5.55t14.55-5.45A18.51,18.51,0,0,0,523.48,191.3Z" transform="translate(-1.03 0.9)"/><path d="M550.38,144.4a6.32,6.32,0,0,1,6.4,6.35,6.32,6.32,0,0,1-6.35,6.35,6,6,0,0,1-4.5-1.9,6.28,6.28,0,0,1,0-8.9A6,6,0,0,1,550.38,144.4Zm4.2,75h-8.3V164.9h8.3Z" transform="translate(-1.03 0.9)"/><path d="M618.08,219.4h-8.2v-26q0-9-.85-12.25a16.21,16.21,0,0,0-2.5-5.5,10.12,10.12,0,0,0-4.2-3.35,15.7,15.7,0,0,0-6.2-1.1A15.47,15.47,0,0,0,589,173a17.9,17.9,0,0,0-6,5,18.73,18.73,0,0,0-3.45,6.8q-1,3.6-.95,14.4v20.2h-8.3V164.9h8.3v8.2q8.1-9.6,19.2-9.6a19.57,19.57,0,0,1,10.7,3.05,18.92,18.92,0,0,1,7.2,8.4q2.4,5.36,2.4,16.45Z" transform="translate(-1.03 0.9)"/><path d="M688,193.6h-47.8q.5,9,6.05,14.45a18.21,18.21,0,0,0,13.25,5.45q13.1,0,20-12.9l7,3.6q-4.71,8.7-11.1,12.85a27.49,27.49,0,0,1-15.3,4.15q-12.3,0-20.3-8.45a29.88,29.88,0,0,1,.05-40.75,26.37,26.37,0,0,1,19.95-8.5,27,27,0,0,1,19.9,8.05Q687.68,179.6,688,193.6Zm-9.2-7.3a17.59,17.59,0,0,0-6.8-10.9,20.06,20.06,0,0,0-12.2-3.9q-14,0-18.6,14.8Z" transform="translate(-1.03 0.9)"/><path d="M756,193.6h-47.8q.5,9,6.05,14.45a18.21,18.21,0,0,0,13.25,5.45q13.1,0,20-12.9l7,3.6q-4.71,8.7-11.1,12.85a27.49,27.49,0,0,1-15.3,4.15q-12.3,0-20.3-8.45a29.88,29.88,0,0,1,.05-40.75,26.37,26.37,0,0,1,19.95-8.5,27,27,0,0,1,19.9,8.05Q755.68,179.6,756,193.6Zm-9.2-7.3a17.59,17.59,0,0,0-6.8-10.9,20.06,20.06,0,0,0-12.2-3.9q-14,0-18.6,14.8Z" transform="translate(-1.03 0.9)"/><path d="M793.28,165.7l-4.3,7a7.08,7.08,0,0,0-3.3-.9,7.19,7.19,0,0,0-5.6,3,20.24,20.24,0,0,0-3.75,8q-1.26,5-1.25,17.85v18.7h-8.4V164.9h8.4v5.9a21.07,21.07,0,0,1,5-5.5,9.8,9.8,0,0,1,5.8-1.8A16,16,0,0,1,793.28,165.7Z" transform="translate(-1.03 0.9)"/><path d="M300.91,202.88a6.75,6.75,0,1,1-4.7,11.5,6.55,6.55,0,0,1-2-4.8,6.39,6.39,0,0,1,2-4.75A6.51,6.51,0,0,1,300.91,202.88Z" transform="translate(-1.03 0.9)"/></svg>